HIERARCHY
ROOT newVegas:Hips
{
	OFFSET 0.000000 96.479958 0.000000
	CHANNELS 6 Xposition Yposition Zposition Xrotation Yrotation Zrotation
	JOINT newVegas:Pelvis
	{
		OFFSET 0.000000 0.000000 0.000000
		CHANNELS 3 Xrotation Yrotation Zrotation
		JOINT newVegas:LeftUpLeg
		{
			OFFSET 18.735201 -5.666702 -4.541200
			CHANNELS 3 Xrotation Yrotation Zrotation
			JOINT newVegas:LeftLeg
			{
				OFFSET -0.021200 -31.938179 0.493100
				CHANNELS 3 Xrotation Yrotation Zrotation
				JOINT newVegas:LeftFoot
				{
					OFFSET 0.021200 -31.938179 -4.336299
					CHANNELS 3 Xrotation Yrotation Zrotation
					JOINT newVegas:LeftToeBase
					{
						OFFSET 0.943001 -26.722000 15.023500
						CHANNELS 3 Xrotation Yrotation Zrotation
						End Site
						{
							OFFSET 0.000000 30.670183 0.000000
						}
					}
				}
				JOINT newVegas:Left_PantLeg
				{
					OFFSET 0.663870 -9.044666 -1.108900
					CHANNELS 3 Xrotation Yrotation Zrotation
					End Site
					{
						OFFSET 1.415995 20.635357 0.000000
					}
				}
			}
		}
		JOINT newVegas:RightUpLeg
		{
			OFFSET -18.735201 -5.666702 -4.541200
			CHANNELS 3 Xrotation Yrotation Zrotation
			JOINT newVegas:RightLeg
			{
				OFFSET 0.018946 -31.938133 0.493100
				CHANNELS 3 Xrotation Yrotation Zrotation
				JOINT newVegas:RightFoot
				{
					OFFSET -0.018946 -31.938126 -4.336299
					CHANNELS 3 Xrotation Yrotation Zrotation
					JOINT newVegas:RightToeBase
					{
						OFFSET -0.943001 -26.722004 15.023500
						CHANNELS 3 Xrotation Yrotation Zrotation
						End Site
						{
							OFFSET 0.000000 30.670187 0.000000
						}
					}
				}
				JOINT newVegas:Right_PantLeg
				{
					OFFSET -0.661674 -9.044716 -1.108900
					CHANNELS 3 Xrotation Yrotation Zrotation
					End Site
					{
						OFFSET -1.415958 20.635269 0.000000
					}
				}
			}
		}
	}
	JOINT newVegas:Spine
	{
		OFFSET 0.000000 10.199997 -0.299500
		CHANNELS 3 Xrotation Yrotation Zrotation
		JOINT newVegas:Spine1
		{
			OFFSET 0.000000 11.900002 -1.516600
			CHANNELS 3 Xrotation Yrotation Zrotation
			JOINT newVegas:Spine2
			{
				OFFSET 0.000000 13.600006 -2.842500
				CHANNELS 3 Xrotation Yrotation Zrotation
				JOINT newVegas:Neck
				{
					OFFSET 0.000000 9.624100 -2.890100
					CHANNELS 3 Xrotation Yrotation Zrotation
					JOINT newVegas:Head
					{
						OFFSET 0.000000 14.068802 -1.351900
						CHANNELS 3 Xrotation Yrotation Zrotation
						JOINT newVegas:Hair_Back
						{
							OFFSET 0.000000 3.231903 -17.524799
							CHANNELS 3 Xrotation Yrotation Zrotation
							End Site
							{
								OFFSET 0.000000 19.849884 0.000000
							}
						}
						JOINT newVegas:Hair_Front
						{
							OFFSET 0.000000 31.260406 4.573800
							CHANNELS 3 Xrotation Yrotation Zrotation
							JOINT newVegas:Hair_Front1
							{
								OFFSET 0.000000 2.284103 11.993300
								CHANNELS 3 Xrotation Yrotation Zrotation
								JOINT newVegas:Hair_Front2
								{
									OFFSET 0.000000 2.284103 11.993300
									CHANNELS 3 Xrotation Yrotation Zrotation
									End Site
									{
										OFFSET 0.000000 12.208862 0.000000
									}
								}
							}
						}
						JOINT newVegas:Jowel
						{
							OFFSET 0.000000 -7.458206 6.864100
							CHANNELS 3 Xrotation Yrotation Zrotation
							End Site
							{
								OFFSET 0.000000 19.849884 0.000000
							}
						}
					}
				}
				JOINT newVegas:LeftShoulder
				{
					OFFSET 15.263000 10.923401 -0.547700
					CHANNELS 3 Xrotation Yrotation Zrotation
					JOINT newVegas:LeftArm
					{
						OFFSET 25.438599 -2.830597 -13.032500
						CHANNELS 3 Xrotation Yrotation Zrotation
						JOINT newVegas:LeftForeArm
						{
							OFFSET 29.960503 0.000000 0.000000
							CHANNELS 3 Xrotation Yrotation Zrotation
							JOINT newVegas:LeftHand
							{
								OFFSET 27.849251 0.000000 0.000000
								CHANNELS 3 Xrotation Yrotation Zrotation
								JOINT newVegas:LeftHandThumb1
								{
									OFFSET 4.487587 -3.305161 6.305391
									CHANNELS 3 Xrotation Yrotation Zrotation
									JOINT newVegas:LeftHandThumb2
									{
										OFFSET 5.480453 -3.164139 3.164143
										CHANNELS 3 Xrotation Yrotation Zrotation
										JOINT newVegas:LeftHandThumb3
										{
											OFFSET 5.159721 -2.978973 2.978967
											CHANNELS 3 Xrotation Yrotation Zrotation
											End Site
											{
												OFFSET 2.494507 5.926697 1.738678
											}
										}
									}
								}
								JOINT newVegas:LeftHandIndex1
								{
									OFFSET 18.578728 -0.527832 5.208049
									CHANNELS 3 Xrotation Yrotation Zrotation
									JOINT newVegas:LeftHandIndex2
									{
										OFFSET 3.192009 0.000000 0.000000
										CHANNELS 3 Xrotation Yrotation Zrotation
										JOINT newVegas:LeftHandIndex3
										{
											OFFSET 3.835129 0.000000 0.000000
											CHANNELS 3 Xrotation Yrotation Zrotation
											End Site
											{
												OFFSET -0.034599 3.816971 0.371180
											}
										}
									}
								}
								JOINT newVegas:LeftHandMiddle1
								{
									OFFSET 18.476105 0.000000 0.000000
									CHANNELS 3 Xrotation Yrotation Zrotation
									JOINT newVegas:LeftHandMiddle2
									{
										OFFSET 3.324875 0.000000 0.000000
										CHANNELS 3 Xrotation Yrotation Zrotation
										JOINT newVegas:LeftHandMiddle3
										{
											OFFSET 4.596550 0.000000 0.000000
											CHANNELS 3 Xrotation Yrotation Zrotation
											End Site
											{
												OFFSET 0.057701 4.578827 0.399218
											}
										}
									}
								}
								JOINT newVegas:LeftHandRing1
								{
									OFFSET 17.732719 0.121887 -4.201567
									CHANNELS 3 Xrotation Yrotation Zrotation
									JOINT newVegas:LeftHandRing2
									{
										OFFSET 2.733170 0.000000 0.000000
										CHANNELS 3 Xrotation Yrotation Zrotation
										JOINT newVegas:LeftHandRing3
										{
											OFFSET 3.178268 0.000000 0.000000
											CHANNELS 3 Xrotation Yrotation Zrotation
											End Site
											{
												OFFSET 0.119102 3.170624 0.185394
											}
										}
									}
								}
								JOINT newVegas:LeftHandPinky1
								{
									OFFSET 15.989624 -0.606689 -7.535461
									CHANNELS 3 Xrotation Yrotation Zrotation
									JOINT newVegas:LeftHandPinky2
									{
										OFFSET 2.538986 0.000000 0.000000
										CHANNELS 3 Xrotation Yrotation Zrotation
										JOINT newVegas:LeftHandPinky3
										{
											OFFSET 2.593102 0.000000 0.000000
											CHANNELS 3 Xrotation Yrotation Zrotation
											End Site
											{
												OFFSET -0.150902 2.584198 0.152708
											}
										}
									}
								}
							}
							JOINT newVegas:Left_Sleeve
							{
								OFFSET 0.267448 -0.649796 0.577675
								CHANNELS 3 Xrotation Yrotation Zrotation
								End Site
								{
									OFFSET 0.000000 15.991241 0.000000
								}
							}
							JOINT newVegas:Left_CapeC
							{
								OFFSET 15.715958 -8.608795 -6.935905
								CHANNELS 3 Xrotation Yrotation Zrotation
								JOINT newVegas:Left_CapeC1
								{
									OFFSET 0.000000 -8.688499 0.000000
									CHANNELS 3 Xrotation Yrotation Zrotation
									End Site
									{
										OFFSET 0.000000 8.688499 0.000000
									}
								}
							}
						}
						JOINT newVegas:Left_CapeB
						{
							OFFSET 26.118385 -8.608795 -7.079235
							CHANNELS 3 Xrotation Yrotation Zrotation
							JOINT newVegas:Left_CapeB1
							{
								OFFSET 0.000000 -8.688499 0.000000
								CHANNELS 3 Xrotation Yrotation Zrotation
								End Site
								{
									OFFSET 0.000000 8.688499 0.000000
								}
							}
						}
						JOINT newVegas:Left_CapeA
						{
							OFFSET 5.115639 -8.608795 -10.395809
							CHANNELS 3 Xrotation Yrotation Zrotation
							JOINT newVegas:Left_CapeA1
							{
								OFFSET 0.000000 -8.688499 0.000000
								CHANNELS 3 Xrotation Yrotation Zrotation
								End Site
								{
									OFFSET 0.000000 8.688499 0.000000
								}
							}
						}
					}
				}
				JOINT newVegas:RightShoulder
				{
					OFFSET -15.263000 10.923401 -0.547700
					CHANNELS 3 Xrotation Yrotation Zrotation
					JOINT newVegas:RightArm
					{
						OFFSET -25.438599 -2.830597 -13.032500
						CHANNELS 3 Xrotation Yrotation Zrotation
						JOINT newVegas:RightForeArm
						{
							OFFSET -29.960503 0.000000 0.000000
							CHANNELS 3 Xrotation Yrotation Zrotation
							JOINT newVegas:RightHand
							{
								OFFSET -27.849251 0.000000 0.000000
								CHANNELS 3 Xrotation Yrotation Zrotation
								JOINT newVegas:RightHandThumb1
								{
									OFFSET -4.487587 -3.305161 6.305391
									CHANNELS 3 Xrotation Yrotation Zrotation
									JOINT newVegas:RightHandThumb2
									{
										OFFSET -5.480453 -3.164139 3.164143
										CHANNELS 3 Xrotation Yrotation Zrotation
										JOINT newVegas:RightHandThumb3
										{
											OFFSET -5.159721 -2.978973 2.978967
											CHANNELS 3 Xrotation Yrotation Zrotation
											End Site
											{
												OFFSET -2.494507 5.926697 1.738678
											}
										}
									}
								}
								JOINT newVegas:RightHandIndex1
								{
									OFFSET -18.578728 -0.527832 5.208049
									CHANNELS 3 Xrotation Yrotation Zrotation
									JOINT newVegas:RightHandIndex2
									{
										OFFSET -3.192009 0.000000 0.000000
										CHANNELS 3 Xrotation Yrotation Zrotation
										JOINT newVegas:RightHandIndex3
										{
											OFFSET -3.835129 0.000000 0.000000
											CHANNELS 3 Xrotation Yrotation Zrotation
											End Site
											{
												OFFSET 0.034599 3.816971 0.371180
											}
										}
									}
								}
								JOINT newVegas:RightHandMiddle1
								{
									OFFSET -18.476105 0.000000 0.000000
									CHANNELS 3 Xrotation Yrotation Zrotation
									JOINT newVegas:RightHandMiddle2
									{
										OFFSET -3.324875 0.000000 0.000000
										CHANNELS 3 Xrotation Yrotation Zrotation
										JOINT newVegas:RightHandMiddle3
										{
											OFFSET -4.596550 0.000000 0.000000
											CHANNELS 3 Xrotation Yrotation Zrotation
											End Site
											{
												OFFSET -0.057701 4.578827 0.399218
											}
										}
									}
								}
								JOINT newVegas:RightHandRing1
								{
									OFFSET -17.732719 0.121887 -4.201567
									CHANNELS 3 Xrotation Yrotation Zrotation
									JOINT newVegas:RightHandRing2
									{
										OFFSET -2.733170 0.000000 0.000000
										CHANNELS 3 Xrotation Yrotation Zrotation
										JOINT newVegas:RightHandRing3
										{
											OFFSET -3.178268 0.000000 0.000000
											CHANNELS 3 Xrotation Yrotation Zrotation
											End Site
											{
												OFFSET -0.119102 3.170624 0.185394
											}
										}
									}
								}
								JOINT newVegas:RightHandPinky1
								{
									OFFSET -15.989624 -0.606689 -7.535461
									CHANNELS 3 Xrotation Yrotation Zrotation
									JOINT newVegas:RightHandPinky2
									{
										OFFSET -2.538986 0.000000 0.000000
										CHANNELS 3 Xrotation Yrotation Zrotation
										JOINT newVegas:RightHandPinky3
										{
											OFFSET -2.593102 0.000000 0.000000
											CHANNELS 3 Xrotation Yrotation Zrotation
											End Site
											{
												OFFSET 0.150902 2.584198 0.152708
											}
										}
									}
								}
							}
							JOINT newVegas:Right_CapeC
							{
								OFFSET -15.715958 -8.608795 -6.935905
								CHANNELS 3 Xrotation Yrotation Zrotation
								JOINT newVegas:Right_CapeC1
								{
									OFFSET 0.000000 -8.688499 0.000000
									CHANNELS 3 Xrotation Yrotation Zrotation
									End Site
									{
										OFFSET 0.000000 8.688499 0.000000
									}
								}
							}
							JOINT newVegas:Right_Sleeve
							{
								OFFSET -0.267448 -0.649994 0.577675
								CHANNELS 3 Xrotation Yrotation Zrotation
								End Site
								{
									OFFSET 0.000000 15.991302 0.000000
								}
							}
						}
						JOINT newVegas:Right_CapeA
						{
							OFFSET -5.115540 -8.608795 -10.395824
							CHANNELS 3 Xrotation Yrotation Zrotation
							JOINT newVegas:Right_CapeA1
							{
								OFFSET 0.000000 -8.688499 0.000000
								CHANNELS 3 Xrotation Yrotation Zrotation
								End Site
								{
									OFFSET 0.000000 8.688499 0.000000
								}
							}
						}
						JOINT newVegas:Right_CapeB
						{
							OFFSET -26.118187 -8.608795 -7.079266
							CHANNELS 3 Xrotation Yrotation Zrotation
							JOINT newVegas:Right_CapeB1
							{
								OFFSET 0.000000 -8.688499 0.000000
								CHANNELS 3 Xrotation Yrotation Zrotation
								End Site
								{
									OFFSET 0.000000 8.688499 0.000000
								}
							}
						}
					}
				}
				JOINT newVegas:Left_Collar
				{
					OFFSET 18.625099 8.655502 8.828100
					CHANNELS 3 Xrotation Yrotation Zrotation
					JOINT newVegas:Left_Collar1
					{
						OFFSET 14.783401 10.540405 -1.259500
						CHANNELS 3 Xrotation Yrotation Zrotation
						End Site
						{
							OFFSET 0.000000 18.199875 0.000000
						}
					}
				}
				JOINT newVegas:Collar_Back
				{
					OFFSET 0.000000 15.630707 -20.132601
					CHANNELS 3 Xrotation Yrotation Zrotation
					End Site
					{
						OFFSET 0.000000 22.523010 0.000000
					}
				}
				JOINT newVegas:Left_Peck
				{
					OFFSET 17.239599 -5.132599 25.482599
					CHANNELS 3 Xrotation Yrotation Zrotation
					End Site
					{
						OFFSET 0.000000 22.523010 0.000000
					}
				}
				JOINT newVegas:Right_Peck
				{
					OFFSET -17.239599 -5.132202 25.482599
					CHANNELS 3 Xrotation Yrotation Zrotation
					End Site
					{
						OFFSET 0.000000 22.523010 0.000000
					}
				}
				JOINT newVegas:Right_Collar
				{
					OFFSET -18.625099 8.655792 8.828100
					CHANNELS 3 Xrotation Yrotation Zrotation
					JOINT newVegas:Right_Collar1
					{
						OFFSET -14.783401 10.539993 -1.259500
						CHANNELS 3 Xrotation Yrotation Zrotation
						End Site
						{
							OFFSET 0.000000 18.199631 0.000000
						}
					}
				}
			}
		}
		JOINT newVegas:Belly
		{
			OFFSET 0.000000 -6.540398 9.014299
			CHANNELS 3 Xrotation Yrotation Zrotation
			End Site
			{
				OFFSET 0.000000 11.566666 0.000000
			}
		}
	}
	JOINT newVegas:ElvisFacialAnim_Joint
	{
		OFFSET 1.000000 -95.330101 -8.825800
		CHANNELS 3 Xrotation Yrotation Zrotation
		End Site
		{
			OFFSET 0.000000 35.315800 0.000000
		}
	}
}
MOTION
Frames: 4
Frame Time: 0.016667
6.050616 70.658020 54.706772 -14.511553 -41.641850 -8.759790 0.000001 -0.000001 -0.000000 -50.943034 -7.985659 33.527872 59.667515 -9.411756 6.529689 0.758964 -9.979571 -30.564513 -0.000000 0.000002 0.000000 -0.000001 -0.000000 -0.000001 -27.335928 4.793032 -44.786380 85.543796 13.970573 -9.533642 -11.735075 -10.735036 23.674284 -0.000000 0.000002 -0.000001 0.000003 0.000003 -0.000003 22.947655 5.495827 -9.486165 0.646536 0.929548 0.134782 0.636327 0.960702 0.115373 3.608893 3.180655 -1.153071 3.608893 3.180651 -1.153073 -0.000001 -0.000001 0.000000 3.608891 3.180639 -1.153068 3.608975 3.180661 -1.153082 -0.000000 0.000002 -0.000001 -0.000001 -0.000001 0.000000 0.727745 3.027003 -7.324552 -54.688594 2.382188 -44.353421 0.000029 -113.998589 0.000039 -8.744117 -11.473583 -10.700571 -6.141213 -11.690800 -6.761685 9.914108 42.595519 3.409867 0.000001 0.000002 -0.000001 0.255308 3.378226 -45.814337 5.654096 5.847758 -88.067455 -0.000000 -0.000001 0.000001 -0.461478 3.841587 -39.722673 6.450745 5.820336 -95.892878 -0.000001 -0.000000 -0.000001 0.469724 4.966822 -39.799444 8.181044 5.368606 -113.503011 -0.000000 0.000003 0.000001 -3.762430 9.063718 -45.253825 5.342508 5.828980 -85.005304 -0.000000 -0.000002 -0.000001 0.000001 0.000000 0.000000 0.000001 0.000000 0.000000 0.000001 0.000001 0.000001 0.000000 -0.000001 0.000001 0.000000 -0.000002 0.000000 0.000000 -0.000001 0.000001 0.000000 -0.000002 0.000002 2.812979 13.874462 -5.932526 -45.155825 21.957419 84.432948 0.000071 114.502596 -0.000076 1.729104 20.759638 7.523814 -7.341093 13.749662 7.412326 9.855726 -44.489100 -3.903276 0.000001 -0.000004 -0.000001 -0.124379 -2.384791 45.108864 4.500590 -4.654543 88.071157 0.000002 0.000001 -0.000002 -0.761628 -2.932898 39.031061 5.133878 -4.632744 95.881649 0.000001 0.000001 0.000000 0.154759 -4.068803 39.122688 6.509724 -4.273586 113.462863 -0.000001 0.000001 -0.000001 -4.198874 -8.025536 44.637779 4.252889 -4.639603 85.014818 -0.000002 0.000002 -0.000001 0.000000 0.000000 -0.000001 0.000000 -0.000002 -0.000001 0.000000 -0.000000 -0.000002 0.000001 0.000000 0.000002 0.000001 0.000001 0.000002 0.000001 0.000000 0.000002 0.000001 0.000001 0.000001 -0.000000 0.000003 -0.000000 -0.000000 0.000003 -0.000000 -0.000000 0.000003 -0.000000 -0.000000 0.000003 -0.000000 -0.000000 0.000003 -0.000000 -0.000000 0.000003 -0.000000 -0.000000 0.000003 -0.000000 -0.000001 0.000000 0.000000 0.000001 -0.000001 -0.000000 
5.536487 71.050018 53.380867 -13.730443 -41.553320 -7.785128 -0.000000 -0.000000 -0.000000 -49.815800 -6.913491 33.779380 54.797009 -9.643631 6.501795 3.362847 -10.455415 -31.505682 -0.000000 0.000000 0.000000 -0.000000 0.000000 -0.000001 -24.550879 2.629732 -44.627852 84.232939 14.865700 -9.513835 -18.307443 -14.424878 24.934934 -0.000001 -0.000000 -0.000003 0.000001 -0.000003 -0.000002 21.165723 6.175299 -8.387808 1.010367 1.004088 -0.234458 1.004577 1.022903 -0.248460 3.741473 3.158627 -1.356125 3.741457 3.158643 -1.356121 0.000000 -0.000000 -0.000001 3.741460 3.158640 -1.356126 3.741590 3.158625 -1.356133 -0.000002 0.000001 -0.000000 0.000000 -0.000000 -0.000001 0.722458 3.377162 -7.482015 -53.816078 2.392655 -44.340618 -0.000042 -114.488546 -0.000031 -8.831632 -10.561578 -10.712636 -6.141211 -11.690800 -6.761684 9.914100 42.595525 3.409861 -0.000000 0.000002 -0.000002 0.255308 3.378226 -45.814334 5.654094 5.847759 -88.067455 0.000001 -0.000000 -0.000002 -0.461478 3.841589 -39.722666 6.450746 5.820335 -95.892878 0.000001 0.000002 -0.000001 0.469724 4.966822 -39.799444 8.181043 5.368606 -113.503011 -0.000001 0.000003 0.000000 -3.762429 9.063717 -45.253818 5.342511 5.828979 -85.005311 -0.000000 0.000000 0.000001 -0.000000 0.000002 -0.000001 -0.000000 0.000002 -0.000001 -0.000000 0.000003 -0.000000 0.000001 0.000001 -0.000001 0.000001 0.000000 -0.000002 0.000001 0.000001 -0.000001 0.000001 -0.000000 0.000000 2.844844 14.234611 -6.010196 -45.524030 21.500539 84.730232 0.000109 114.409760 -0.000110 1.034116 19.977798 8.075882 -7.341097 13.749663 7.412328 9.855732 -44.489107 -3.903281 0.000001 -0.000003 -0.000001 -0.124380 -2.384789 45.108857 4.500587 -4.654543 88.071164 0.000001 -0.000000 0.000001 -0.761629 -2.932897 39.031055 5.133876 -4.632746 95.881642 -0.000003 -0.000001 0.000001 0.154760 -4.068801 39.122685 6.509726 -4.273590 113.462870 -0.000000 -0.000001 0.000001 -4.198876 -8.025534 44.637776 4.252888 -4.639603 85.014811 0.000001 0.000002 -0.000001 -0.000000 0.000002 -0.000001 -0.000002 0.000002 -0.000001 -0.000001 0.000002 0.000001 0.000000 0.000001 0.000001 0.000000 0.000002 0.000003 0.000000 0.000001 0.000001 0.000000 0.000002 0.000003 -0.000000 -0.000001 0.000000 -0.000000 -0.000001 0.000000 -0.000000 -0.000001 0.000000 -0.000000 -0.000001 0.000000 -0.000000 -0.000001 0.000000 -0.000000 -0.000001 0.000000 -0.000000 -0.000001 0.000000 -0.000001 0.000001 -0.000001 -0.000000 -0.000000 -0.000000 
5.028274 71.312790 51.992847 -12.674510 -41.225676 -6.703361 -0.000001 0.000000 -0.000000 -49.148081 -6.057774 33.821143 50.071516 -9.781163 6.408203 6.000665 -11.228952 -32.282524 0.000000 -0.000003 -0.000000 0.000003 -0.000002 -0.000001 -21.564813 -0.006714 -44.668775 82.020798 14.807290 -8.381986 -25.498933 -17.021361 25.198072 0.000000 -0.000000 0.000000 -0.000000 0.000003 -0.000002 19.315724 6.738471 -7.219427 1.352511 1.057873 -0.608382 1.352142 1.065434 -0.615882 3.854970 3.130839 -1.550319 3.854968 3.130833 -1.550332 0.000003 -0.000001 0.000001 3.854971 3.130790 -1.550311 3.854975 3.130877 -1.550328 -0.000001 0.000000 0.000000 0.000003 -0.000001 0.000000 0.720597 3.654624 -7.622849 -53.440821 2.217208 -44.400287 0.000032 -114.716879 0.000033 -8.688878 -9.634170 -11.046187 -6.141210 -11.690801 -6.761685 9.914102 42.595529 3.409875 0.000001 0.000002 0.000001 0.255308 3.378226 -45.814331 5.654094 5.847760 -88.067455 0.000000 0.000000 0.000001 -0.461477 3.841586 -39.722669 6.450745 5.820334 -95.892871 -0.000002 -0.000001 0.000001 0.469725 4.966820 -39.799441 8.181041 5.368607 -113.503018 0.000000 0.000003 0.000001 -3.762426 9.063716 -45.253821 5.342511 5.828975 -85.005304 -0.000001 0.000000 -0.000003 0.000000 -0.000001 -0.000003 0.000000 -0.000001 -0.000003 0.000000 -0.000001 -0.000002 0.000002 0.000004 -0.000001 0.000002 0.000003 -0.000001 0.000002 0.000004 -0.000001 0.000002 0.000003 -0.000001 2.810630 14.537262 -6.138982 -46.080192 20.947441 84.878815 0.000074 114.352270 -0.000073 0.145110 19.111347 8.651114 -7.341094 13.749663 7.412323 9.855736 -44.489107 -3.903287 0.000001 -0.000005 -0.000003 -0.124378 -2.384791 45.108861 4.500585 -4.654544 88.071164 0.000002 -0.000000 -0.000000 -0.761627 -2.932898 39.031061 5.133876 -4.632745 95.881649 0.000000 0.000000 0.000001 0.154762 -4.068802 39.122682 6.509726 -4.273590 113.462863 -0.000001 -0.000001 -0.000000 -4.198874 -8.025534 44.637783 4.252888 -4.639608 85.014811 0.000000 -0.000002 0.000000 0.000001 0.000004 -0.000001 -0.000000 0.000000 -0.000001 0.000001 0.000004 -0.000001 -0.000001 0.000002 -0.000001 -0.000001 0.000003 0.000001 -0.000001 0.000002 -0.000001 -0.000001 0.000003 0.000001 0.000000 -0.000002 0.000001 0.000000 -0.000002 0.000001 0.000000 -0.000002 0.000001 0.000000 -0.000002 0.000001 0.000000 -0.000002 0.000001 0.000000 -0.000002 0.000001 0.000000 -0.000002 0.000001 -0.000000 -0.000000 -0.000001 -0.000001 0.000000 -0.000000 
4.558152 71.702759 50.463478 -11.444747 -40.703638 -5.527371 0.000001 -0.000003 -0.000001 -48.674845 -5.379609 33.644631 46.061542 -9.644003 6.117510 7.388079 -11.786344 -32.829588 0.000000 -0.000001 -0.000000 0.000002 0.000000 0.000001 -19.450376 -2.518260 -44.191549 79.620799 14.050020 -6.933775 -31.455989 -18.392518 24.520418 0.000000 0.000001 0.000000 -0.000000 0.000003 0.000002 17.576974 7.113227 -6.130756 1.638938 1.089197 -0.969848 1.644421 1.086869 -0.970826 3.927605 3.099970 -1.716141 3.927634 3.099982 -1.716148 0.000002 0.000002 -0.000000 3.927694 3.099978 -1.716148 3.927464 3.099990 -1.716134 0.000001 -0.000001 -0.000000 0.000002 0.000002 -0.000001 0.718279 3.843464 -7.721461 -53.487375 1.962358 -44.508795 0.000083 -114.724502 0.000058 -8.343830 -8.919357 -11.544597 -6.141211 -11.690803 -6.761680 9.914095 42.595525 3.409872 0.000002 0.000001 -0.000003 0.255307 3.378228 -45.814337 5.654094 5.847761 -88.067455 0.000001 -0.000000 -0.000001 -0.461479 3.841588 -39.722673 6.450748 5.820337 -95.892871 -0.000000 -0.000002 -0.000000 0.469723 4.966820 -39.799444 8.181043 5.368606 -113.503011 0.000000 0.000001 0.000001 -3.762429 9.063717 -45.253825 5.342515 5.828978 -85.005311 -0.000001 0.000000 -0.000003 -0.000000 0.000000 0.000000 -0.000000 0.000000 0.000000 -0.000001 0.000001 0.000001 0.000000 0.000003 0.000001 0.000000 0.000003 0.000002 0.000000 0.000003 0.000001 0.000000 0.000002 0.000002 2.691446 14.753627 -6.327801 -46.723050 20.456837 84.821592 0.000030 114.332265 -0.000046 -0.808686 18.412564 9.158083 -7.341094 13.749657 7.412325 9.855731 -44.489107 -3.903283 0.000001 0.000004 0.000002 -0.124377 -2.384790 45.108861 4.500588 -4.654544 88.071164 0.000001 -0.000000 0.000000 -0.761627 -2.932899 39.031055 5.133877 -4.632746 95.881642 -0.000001 -0.000001 0.000002 0.154761 -4.068801 39.122685 6.509724 -4.273587 113.462863 -0.000000 -0.000001 -0.000001 -4.198872 -8.025536 44.637783 4.252886 -4.639606 85.014811 0.000001 -0.000002 -0.000002 -0.000000 0.000004 -0.000002 -0.000000 0.000001 -0.000001 -0.000000 0.000004 -0.000001 0.000001 -0.000005 0.000000 0.000001 -0.000004 0.000000 0.000001 -0.000005 0.000000 0.000001 -0.000004 -0.000000 -0.000000 -0.000003 0.000000 -0.000000 -0.000003 0.000000 -0.000000 -0.000003 0.000000 -0.000000 -0.000003 0.000000 -0.000000 -0.000003 0.000000 -0.000000 -0.000003 0.000000 -0.000000 -0.000003 0.000000 0.000000 -0.000001 0.000000 0.000001 -0.000003 -0.000001 
